# xmcd
#
# Track frame offsets: 
#        150
#        14903
#        24897
#        35032
#        46507
#        58414
#        69161
#        79467
#        91887
#        104235
#        115025
#        127101
#        138713
#        151977
#        165533
#        178744
#        192109
#        203493
#        216094
#        228327
#        239316
#        252391
#        263898
#
# Disc length: 3745 seconds
#
# Revision: 0
# Processed by: cddbd v1.5.2PL0 Copyright (c) Steve Scherf et al.
# Submitted via: ExactAudioCopy v1.0b1
#
DISCID=490e9f17
DTITLE=Various Artist - Mr Joe's Jambalaya and Loaded Down With The Blues (disc
DTITLE=2)
DYEAR=2012
DGENRE=R and B
TTITLE0=Art Neville - All These Things (Full-Length Version)
TTITLE1=The Showmen - It Will Stand
TTITLE2=Willie Harper - New Kind Of Love
TTITLE3=Joe August - Everything Happens At Night
TTITLE4=Raymond Lewis - I'm Gonna Put Some Hurt On You
TTITLE5=Benny Spellman - Lipstick Traces (On A Cigarette)
TTITLE6=Chick Carbo - In The Night
TTITLE7=Eskew Reader - Green Door
TTITLE8=Eldridge Holmes - The Sooner You Realize
TTITLE9=Calvin Lee - Valley Of Tears
TTITLE10=Irma Thomas - Ruler Of My Heart
TTITLE11=The Stokes - Whipped Cream
TTITLE12=Allen Toussaint and The Stokes - Poor Boy Got To Move
TTITLE13=Allen Toussaint and The Stokes - Go Back Home
TTITLE14=Roger and The Gypsies - Pass The Hatchet - Part 1
TTITLE15=The Pitter Pats - It Do Me Good
TTITLE16=Oliver Morgan - The La La Man - Part 1
TTITLE17=Eddie Lang - The Sad One
TTITLE18=Barbara George - Something You Got
TTITLE19=Eddie Bo and Inez Cheatham - Lover And A Friend
TTITLE20=Larry Darnell - Son Of A Son Of A Slave
TTITLE21=Little Buck - Whisper My Name
TTITLE22=Skip Easterling - I'm Your Hoochie Coochie Man
EXTD=
EXTT0=
EXTT1=
EXTT2=
EXTT3=
EXTT4=
EXTT5=
EXTT6=
EXTT7=
EXTT8=
EXTT9=
EXTT10=
EXTT11=
EXTT12=
EXTT13=
EXTT14=
EXTT15=
EXTT16=
EXTT17=
EXTT18=
EXTT19=
EXTT20=
EXTT21=
EXTT22=
PLAYORDER=
